<?xml version="1.0" standalone="no"?>
<!DOCTYPE svg PUBLIC "-//W3C//DTD SVG 20010904//EN"
 "http://www.w3.org/TR/2001/REC-SVG-20010904/DTD/svg10.dtd">
<svg version="1.0" xmlns="http://www.w3.org/2000/svg"
 width="1889.000000pt" height="1282.000000pt" viewBox="0 0 1889.000000 1282.000000"
 preserveAspectRatio="xMidYMid meet">

<g transform="translate(0.000000,1282.000000) scale(0.100000,-0.100000)"
fill="#000000" stroke="none">
<path d="M7390 11946 c0 -90 -3 -126 -12 -129 -8 -3 -6 -6 5 -6 15 -1 17 12
17 129 0 72 -2 130 -5 130 -3 0 -5 -56 -5 -124z"/>
<path d="M7422 11948 l-2 -126 23 6 c17 5 18 7 5 10 -15 3 -18 19 -21 120 l-3
117 -2 -127z"/>
<path d="M7534 11965 c0 -60 1 -84 3 -52 2 32 2 81 0 110 -2 29 -3 3 -3 -58z"/>
<path d="M7562 11968 l-2 -107 31 9 c43 13 50 22 11 14 l-31 -6 -4 98 -3 99
-2 -107z"/>
<path d="M8628 12061 c-26 -4 -51 -11 -55 -15 -4 -5 3 -5 16 -1 14 4 88 11
165 15 l141 7 -110 0 c-60 0 -131 -3 -157 -6z"/>
<path d="M9317 12063 c18 -2 50 -2 70 0 21 2 7 4 -32 4 -38 0 -55 -2 -38 -4z"/>
<path d="M9440 12065 c33 -10 150 -21 143 -14 -4 4 -42 9 -83 12 -41 3 -68 4
-60 2z"/>
<path d="M10632 11969 c-2 -87 1 -108 13 -113 13 -5 15 11 13 107 l-2 112 -6
-105 -6 -105 -5 105 -5 105 -2 -106z"/>
<path d="M10742 11957 l-2 -119 -32 6 -33 6 35 -14 35 -13 3 64 c2 35 1 92 -1
126 -2 35 -4 11 -5 -56z"/>
<path d="M10772 11945 l-2 -131 43 -12 c23 -7 48 -15 55 -18 9 -4 12 27 10
143 l-2 148 -3 -141 -4 -141 -44 16 -44 16 -4 125 -3 125 -2 -130z"/>
<path d="M10902 11923 c-2 -130 0 -153 13 -153 13 0 15 23 13 153 l-2 152 -5
-150 -5 -150 -6 150 -6 150 -2 -152z"/>
<path d="M10955 11916 c0 -133 2 -160 15 -163 11 -3 12 -2 3 4 -9 6 -13 56
-16 163 l-3 155 1 -159z"/>
<path d="M8425 12043 c-27 -2 -53 -8 -58 -12 -4 -4 28 -4 70 1 127 13 119 21
-12 11z"/>
<path d="M9663 12043 c9 -2 23 -2 30 0 6 3 -1 5 -18 5 -16 0 -22 -2 -12 -5z"/>
<path d="M9720 12034 c35 -7 98 -9 94 -2 -3 5 -29 7 -57 7 -29 -1 -45 -3 -37
-5z"/>
<path d="M8315 12020 c-3 -6 1 -7 9 -4 18 7 21 14 7 14 -6 0 -13 -4 -16 -10z"/>
<path d="M8248 12013 c6 -2 18 -2 25 0 6 3 1 5 -13 5 -14 0 -19 -2 -12 -5z"/>
<path d="M9921 12011 c30 -10 133 -22 126 -15 -5 6 -30 10 -102 18 -34 3 -42
3 -24 -3z"/>
<path d="M8178 12003 c12 -2 30 -2 40 0 9 3 -1 5 -23 4 -22 0 -30 -2 -17 -4z"/>
<path d="M10085 11986 c29 -13 156 -33 145 -23 -3 3 -34 9 -70 15 -36 6 -74
13 -85 16 -11 4 -6 0 10 -8z"/>
<path d="M7995 11974 c-38 -7 -86 -18 -105 -23 -31 -9 -32 -10 -5 -7 56 8 198
36 203 41 8 7 -15 5 -93 -11z"/>
<path d="M10305 11941 c11 -4 38 -11 60 -14 25 -4 33 -4 20 2 -11 4 -38 11
-60 14 -25 4 -33 4 -20 -2z"/>
<path d="M7790 11930 c-11 -7 -5 -8 20 -4 43 8 51 14 19 14 -13 0 -31 -5 -39
-10z"/>
<path d="M10435 11910 c11 -5 29 -8 40 -8 16 0 15 2 -5 8 -34 11 -60 11 -35 0z"/>
<path d="M7665 11900 c-25 -11 1 -11 35 0 20 6 21 8 5 8 -11 0 -29 -3 -40 -8z"/>
<path d="M10570 11876 c0 -2 11 -6 25 -8 13 -3 22 -1 19 3 -5 9 -44 13 -44 5z"/>
<path d="M7485 11850 c-13 -6 -15 -9 -5 -9 8 0 22 4 30 9 18 12 2 12 -25 0z"/>
<path d="M4902 11035 l-2 -780 105 105 c58 58 105 107 105 111 0 3 -44 -39
-97 -93 l-98 -98 -5 768 -5 767 -3 -780z"/>
<path d="M5145 11165 c0 -357 1 -502 2 -322 2 181 2 473 0 650 -1 177 -2 30
-2 -328z"/>
<path d="M5172 11167 c-1 -428 1 -646 8 -642 5 3 15 16 20 28 11 21 11 21 -4
3 -14 -18 -16 41 -19 620 l-2 639 -3 -648z"/>
<path d="M5272 11223 l-2 -592 -22 -22 -23 -21 22 11 c13 6 25 22 28 34 3 12
4 283 3 602 l-3 580 -3 -592z"/>
<path d="M5300 11225 c0 -324 2 -586 5 -583 7 7 6 1160 0 1166 -3 3 -5 -259
-5 -583z"/>
<path d="M5362 11268 c-1 -300 -5 -555 -8 -565 -5 -16 -4 -16 5 -1 8 11 10
184 8 565 l-2 548 -3 -547z"/>
<path d="M5432 11288 c-1 -410 -5 -527 -14 -531 -10 -4 -10 -6 0 -6 7 -1 15 5
17 12 3 6 4 246 3 532 l-3 520 -3 -527z"/>
<path d="M5462 11298 c-2 -492 -1 -517 16 -503 9 8 26 22 37 31 19 15 18 15
-7 0 -15 -9 -30 -16 -33 -16 -2 0 -6 226 -8 503 l-2 502 -3 -517z"/>
<path d="M5575 11340 c0 -261 1 -368 2 -237 2 130 2 344 0 475 -1 130 -2 23
-2 -238z"/>
<path d="M5605 11350 c0 -256 1 -360 2 -232 2 127 2 337 0 465 -1 127 -2 23
-2 -233z"/>
<path d="M5662 11378 l-2 -437 -22 -15 c-12 -9 -18 -16 -13 -16 6 0 18 7 28
14 16 12 17 43 14 452 l-2 439 -3 -437z"/>
<path d="M5695 11380 c0 -239 1 -337 2 -217 2 119 2 315 0 435 -1 119 -2 21
-2 -218z"/>
<path d="M5790 11418 c-3 -218 -2 -394 3 -389 4 4 6 182 5 397 l-3 389 -5
-397z"/>
<path d="M5825 11430 c0 -212 1 -298 2 -192 2 105 2 279 0 385 -1 105 -2 19
-2 -193z"/>
<path d="M5880 11453 c-3 -199 -2 -359 3 -354 4 4 6 167 5 362 l-3 354 -5
-362z"/>
<path d="M5932 11473 c-1 -189 0 -343 2 -343 3 0 21 9 40 21 l36 21 -2 321 -3
322 -3 -320 -2 -320 -30 -17 -30 -17 -3 337 -2 337 -3 -342z"/>
<path d="M6034 11500 c0 -173 2 -244 3 -157 2 86 2 228 0 315 -1 86 -3 15 -3
-158z"/>
<path d="M6054 11505 c0 -170 2 -242 3 -158 2 83 2 223 0 310 -1 87 -3 19 -3
-152z"/>
<path d="M6152 11538 c-2 -250 0 -277 14 -271 10 4 12 8 5 12 -7 5 -12 98 -14
271 l-2 265 -3 -277z"/>
<path d="M6192 11553 c-1 -145 1 -263 6 -263 4 0 6 78 4 172 -4 323 -8 354
-10 91z"/>
<path d="M6222 11563 c-2 -219 0 -253 13 -253 13 0 15 34 13 253 l-2 252 -6
-250 -5 -250 -5 250 -5 250 -3 -252z"/>
<path d="M6282 11578 c-1 -178 -5 -238 -14 -241 -10 -4 -10 -6 0 -6 7 -1 15 5
18 12 2 7 3 116 1 242 l-2 230 -3 -237z"/>
<path d="M6312 11587 c-2 -179 1 -228 11 -225 9 4 12 59 12 229 l1 224 -6
-225 -5 -225 -5 225 -5 225 -3 -228z"/>
<path d="M6384 11600 c0 -118 2 -167 3 -107 2 59 2 155 0 215 -1 59 -3 10 -3
-108z"/>
<path d="M6640 11670 l0 -140 -25 -10 c-36 -14 -31 -21 5 -9 l30 11 0 144 c0
79 -2 144 -5 144 -3 0 -5 -63 -5 -140z"/>
<path d="M6682 11677 l-2 -138 30 16 30 16 -2 122 -2 122 -3 -120 c-3 -113 -9
-134 -35 -135 -4 0 -9 57 -11 128 l-3 127 -2 -138z"/>
<path d="M6768 11695 c-2 -63 0 -115 5 -115 4 0 7 52 7 115 0 63 -2 115 -4
115 -3 0 -6 -52 -8 -115z"/>
<path d="M6802 11708 c-2 -90 0 -108 13 -108 13 0 15 18 13 108 l-2 107 -6
-105 -6 -105 -5 105 -5 105 -2 -107z"/>
<path d="M6852 11716 c-2 -86 0 -97 14 -92 9 3 20 6 25 6 5 0 8 42 7 93 l-2
92 -3 -85 c-3 -52 -9 -87 -16 -92 -9 -5 -13 16 -18 85 l-5 92 -2 -99z"/>
<path d="M6923 11730 c0 -47 2 -66 4 -42 2 23 2 61 0 85 -2 23 -4 4 -4 -43z"/>
<path d="M6952 11737 c-2 -77 -2 -78 21 -72 12 4 27 12 32 17 6 5 -2 5 -17 -1
l-27 -10 -4 72 -3 72 -2 -78z"/>
<path d="M7062 11762 c-2 -44 -6 -54 -24 -62 -13 -5 -16 -9 -8 -9 33 -1 41 15
37 70 l-3 54 -2 -53z"/>
<path d="M7210 11785 c0 -20 -7 -26 -41 -37 -23 -6 -37 -14 -31 -16 5 -1 26 4
46 12 28 12 36 21 36 40 0 15 -2 26 -5 26 -3 0 -5 -11 -5 -25z"/>
<path d="M7291 11794 c0 -11 3 -14 6 -6 3 7 2 16 -1 19 -3 4 -6 -2 -5 -13z"/>
<path d="M7320 11800 c-18 -12 -2 -12 25 0 13 6 15 9 5 9 -8 0 -22 -4 -30 -9z"/>
<path d="M11000 11740 c8 -5 22 -9 30 -9 10 0 8 3 -5 9 -27 12 -43 12 -25 0z"/>
<path d="M11051 11726 c8 -8 113 -45 117 -42 2 2 -22 13 -53 25 -54 20 -73 25
-64 17z"/>
<path d="M11242 11696 c-2 -30 -5 -37 -17 -32 -38 15 -47 15 -18 0 18 -10 35
-15 39 -12 3 3 4 23 1 44 l-4 39 -1 -39z"/>
<path d="M11274 11686 c1 -35 5 -51 16 -53 10 -3 11 -2 3 4 -6 5 -14 29 -16
53 l-4 45 1 -49z"/>
<path d="M11313 11675 c0 -33 2 -45 4 -27 2 18 2 45 0 60 -2 15 -4 0 -4 -33z"/>
<path d="M11342 11673 l-2 -63 40 -20 40 -20 -2 82 -2 83 -3 -72 c-2 -40 -6
-73 -8 -73 -2 0 -15 5 -29 11 -22 10 -26 19 -29 73 l-3 61 -2 -62z"/>
<path d="M11442 11649 c-2 -85 -2 -86 26 -98 l27 -12 -22 18 c-19 15 -23 30
-26 98 l-3 80 -2 -86z"/>
<path d="M11514 11630 c0 -58 1 -81 3 -52 2 28 2 76 0 105 -2 28 -3 5 -3 -53z"/>
<path d="M11858 11544 c-2 -102 0 -188 5 -191 4 -2 7 82 7 186 0 105 -2 191
-5 191 -2 0 -5 -84 -7 -186z"/>
<path d="M12092 11482 c-2 -199 -5 -252 -14 -246 -8 5 -7 0 2 -11 14 -16 15
-5 18 113 1 73 1 192 -1 265 -1 73 -4 19 -5 -121z"/>
<path d="M12162 11454 c-2 -253 0 -282 14 -288 13 -5 14 -4 6 7 -8 9 -13 103
-15 288 l-2 274 -3 -281z"/>
<path d="M12648 11279 c-2 -248 0 -453 5 -456 4 -2 7 201 7 451 0 251 -2 456
-5 456 -2 0 -6 -203 -7 -451z"/>
<path d="M12678 11265 c-2 -256 0 -465 5 -465 4 0 7 209 7 465 0 256 -2 465
-5 465 -2 0 -6 -209 -7 -465z"/>
<path d="M12710 11258 c-3 -262 -2 -474 3 -469 4 4 6 218 5 477 l-3 469 -5
-477z"/>
<path d="M13272 11001 c-2 -697 -3 -733 -19 -720 -13 10 -13 8 2 -10 l20 -23
3 371 c1 204 1 539 -1 744 -1 204 -3 42 -5 -362z"/>
<path d="M11531 11526 c2 -2 15 -9 29 -15 24 -11 24 -11 6 3 -16 13 -49 24
-35 12z"/>
<path d="M6515 11470 c-39 -26 -25 -26 17 0 18 11 29 20 23 20 -5 0 -23 -9
-40 -20z"/>
<path d="M11611 11486 c2 -2 15 -9 29 -15 24 -11 24 -11 6 3 -16 13 -49 24
-35 12z"/>
<path d="M11671 11456 c2 -2 15 -9 29 -15 24 -11 24 -11 6 3 -16 13 -49 24
-35 12z"/>
<path d="M6437 11431 c-40 -26 -47 -36 -12 -18 42 23 62 37 50 36 -5 0 -22 -8
-38 -18z"/>
<path d="M11755 11410 c17 -11 35 -20 40 -20 6 0 -5 9 -23 20 -42 26 -56 26
-17 0z"/>
<path d="M10880 11403 c-382 -36 -632 -81 -1012 -183 -742 -199 -1429 -533
-1983 -963 -334 -260 -684 -614 -931 -942 -322 -428 -560 -872 -727 -1360
-107 -312 -170 -593 -219 -975 -18 -142 -18 -749 0 -880 82 -593 234 -1040
503 -1475 528 -857 1432 -1420 2429 -1515 159 -15 516 -5 665 19 357 56 647
149 960 309 699 358 1226 981 1470 1741 202 632 191 1383 -30 1966 -126 330
-243 538 -442 781 -392 482 -951 816 -1688 1009 -164 43 -160 41 -217 113
l-53 67 1 90 c4 214 87 585 191 850 50 129 169 355 246 471 222 332 514 600
860 788 49 27 91 55 94 63 11 29 -19 36 -117 26z m-1223 -593 c2 -8 -38 -71
-87 -140 -49 -69 -95 -133 -102 -143 -7 -11 -29 -41 -48 -67 -19 -26 -42 -58
-50 -70 -8 -12 -31 -44 -50 -70 -56 -78 -212 -300 -244 -348 -43 -65 -114
-113 -276 -187 -535 -246 -813 -434 -1140 -772 -569 -587 -949 -1371 -1120
-2308 -54 -296 -63 -339 -81 -392 -10 -29 -23 -58 -29 -65 -38 -46 -50 -62
-50 -70 0 -4 -6 -8 -13 -8 -38 0 -58 328 -38 604 111 1509 929 2954 2061 3641
220 134 541 275 772 340 235 66 489 95 495 55z"/>
<path d="M11817 11379 c7 -7 15 -10 18 -7 3 3 -2 9 -12 12 -14 6 -15 5 -6 -5z"/>
<path d="M11890 11347 c0 -3 12 -12 26 -22 15 -9 23 -12 20 -6 -7 11 -46 35
-46 28z"/>
<path d="M11961 11296 c2 -2 15 -9 29 -15 24 -11 24 -11 6 3 -16 13 -49 24
-35 12z"/>
<path d="M12020 11266 c0 -3 9 -10 20 -16 11 -6 20 -8 20 -6 0 3 -9 10 -20 16
-11 6 -20 8 -20 6z"/>
<path d="M6100 11239 c-22 -18 -22 -19 -3 -10 12 6 25 16 28 21 9 15 3 12 -25
-11z"/>
<path d="M12207 11149 c12 -15 73 -53 73 -46 0 2 -19 17 -42 32 -24 16 -38 22
-31 14z"/>
<path d="M12290 11093 c0 -5 18 -18 40 -31 52 -29 52 -22 0 12 -22 14 -40 23
-40 19z"/>
<path d="M12432 10994 c10 -10 20 -16 22 -13 3 3 -5 11 -17 18 -21 13 -21 12
-5 -5z"/>
<path d="M12490 10952 c0 -4 10 -13 23 -21 22 -14 22 -14 3 8 -20 22 -26 25
-26 13z"/>
<path d="M12602 10864 c10 -10 20 -16 22 -13 3 3 -5 11 -17 18 -21 13 -21 12
-5 -5z"/>
<path d="M5540 10860 c-9 -6 -10 -10 -3 -10 6 0 15 5 18 10 8 12 4 12 -15 0z"/>
<path d="M12752 10745 c15 -16 29 -27 31 -24 3 2 -10 15 -27 28 l-31 24 27
-28z"/>
<path d="M12830 10682 c0 -5 14 -18 30 -30 17 -13 30 -21 30 -19 0 2 -13 16
-30 30 -16 15 -30 23 -30 19z"/>
<path d="M12900 10621 c0 -10 19 -25 25 -20 1 2 -3 10 -11 17 -8 7 -14 8 -14
3z"/>
<path d="M12982 10545 c21 -22 39 -37 41 -34 2 2 -15 19 -37 38 l-41 35 37
-39z"/>
<path d="M5126 10493 c-6 -14 -5 -15 5 -6 7 7 10 15 7 18 -3 3 -9 -2 -12 -12z"/>
<path d="M13040 10491 c0 -10 19 -25 25 -20 1 2 -3 10 -11 17 -8 7 -14 8 -14
3z"/>
<path d="M13075 10453 c6 -5 37 -34 70 -63 51 -46 54 -48 20 -11 -22 23 -53
52 -70 63 -16 12 -25 17 -20 11z"/>
<path d="M13200 10326 c0 -2 8 -10 18 -17 15 -13 16 -12 3 4 -13 16 -21 21
-21 13z"/>
<path d="M4820 10210 c0 -36 2 -37 35 -5 32 33 31 35 -5 35 -27 0 -30 -3 -30
-30z m40 16 c0 -2 -7 -9 -15 -16 -12 -10 -15 -10 -15 4 0 9 7 16 15 16 8 0 15
-2 15 -4z"/>
<path d="M13316 10208 c16 -18 30 -35 32 -37 1 -2 2 12 2 32 0 35 -2 37 -32
37 l-32 0 30 -32z m24 6 c0 -14 -3 -14 -15 -4 -8 7 -15 14 -15 16 0 2 7 4 15
4 8 0 15 -7 15 -16z"/>
<path d="M4780 10144 c0 -14 3 -14 15 -4 8 7 15 14 15 16 0 2 -7 4 -15 4 -8 0
-15 -7 -15 -16z"/>
<path d="M13365 10150 c4 -6 11 -7 17 -4 6 4 8 2 4 -4 -3 -6 -2 -13 4 -17 5
-3 10 3 10 14 0 15 -6 21 -21 21 -11 0 -17 -5 -14 -10z"/>
<path d="M4737 10094 c3 -9 9 -12 12 -7 3 4 10 11 15 16 5 4 0 7 -12 7 -15 0
-20 -4 -15 -16z"/>
<path d="M13578 10103 c94 -2 250 -2 345 0 94 1 17 3 -173 3 -190 0 -267 -2
-172 -3z"/>
<path d="M13438 10083 c6 -2 12 -10 12 -18 0 -7 7 -18 15 -25 12 -10 12 -7 -1
19 -9 17 -21 31 -27 30 -8 0 -8 -2 1 -6z"/>
<path d="M4090 10049 c0 -7 96 -9 304 -7 167 2 302 0 299 -5 -2 -4 -9 -5 -14
-2 -5 4 -9 -4 -9 -16 0 -12 1 -20 3 -18 1 2 13 16 26 32 l24 27 -316 0 c-216
0 -317 -3 -317 -11z"/>
<path d="M13510 9986 c0 -2 8 -10 18 -17 15 -13 16 -12 3 4 -13 16 -21 21 -21
13z"/>
<path d="M4358 9973 c174 -2 271 -7 267 -13 -3 -6 1 -7 9 -4 49 19 -11 24
-266 22 l-283 -3 273 -2z"/>
<path d="M13560 9925 c13 -14 26 -25 28 -25 3 0 -5 11 -18 25 -13 14 -26 25
-28 25 -3 0 5 -11 18 -25z"/>
<path d="M4581 9909 c-17 -17 -31 -35 -31 -40 0 -6 7 -4 15 5 8 8 15 18 15 21
0 4 10 15 23 26 12 10 19 18 15 19 -3 0 -20 -14 -37 -31z"/>
<path d="M13625 9840 c10 -11 20 -20 23 -20 3 0 -3 9 -13 20 -10 11 -20 20
-23 20 -3 0 3 -9 13 -20z"/>
<path d="M4530 9835 c-8 -9 -8 -15 -2 -15 12 0 26 19 19 26 -2 2 -10 -2 -17
-11z"/>
<path d="M4293 9803 c178 -3 197 -5 198 -21 0 -14 2 -14 6 -2 3 8 11 18 16 22
6 4 -86 6 -204 5 l-214 -1 198 -3z"/>
<path d="M13657 9802 c5 -4 13 -14 16 -22 4 -12 6 -12 6 2 1 16 20 18 204 21
l202 3 -219 1 c-121 1 -215 -1 -209 -5z"/>
<path d="M13690 9756 c0 -2 8 -10 17 -17 11 -9 14 -10 9 -2 -5 10 37 13 186
16 l193 2 -202 3 c-112 1 -203 0 -203 -2z"/>
<path d="M4183 9733 c53 -2 141 -2 195 0 53 1 9 3 -98 3 -107 0 -151 -2 -97
-3z"/>
<path d="M4258 9713 c110 -2 172 -7 172 -14 0 -6 5 -7 11 -3 28 17 -28 24
-186 22 l-170 -2 173 -3z"/>
<path d="M13731 9703 c7 -12 15 -20 18 -17 3 2 -3 12 -13 22 -17 16 -18 16 -5
-5z"/>
<path d="M4398 9663 c7 -3 16 -2 19 1 4 3 -2 6 -13 5 -11 0 -14 -3 -6 -6z"/>
<path d="M13785 9630 c10 -11 20 -20 23 -20 3 0 -3 9 -13 20 -10 11 -20 20
-23 20 -3 0 3 -9 13 -20z"/>
<path d="M4091 9625 c7 -6 289 -8 296 -1 4 3 -63 6 -147 6 -84 0 -151 -2 -149
-5z"/>
<path d="M4328 9553 c-18 -21 -31 -43 -25 -43 2 0 13 14 25 30 25 33 24 41 0
13z"/>
<path d="M13840 9550 c6 -11 13 -20 16 -20 2 0 0 9 -6 20 -6 11 -13 20 -16 20
-2 0 0 -9 6 -20z"/>
<path d="M13890 9473 c13 -18 25 -33 27 -33 8 0 -17 38 -33 51 -11 9 -9 2 6
-18z"/>
<path d="M4180 9483 c46 -2 87 -9 91 -14 4 -7 8 -5 12 4 5 12 -10 14 -91 14
l-97 -1 85 -3z"/>
<path d="M4165 9420 c44 -3 84 -2 90 2 5 4 -31 7 -80 6 l-90 -1 80 -7z"/>
<path d="M4155 9400 l-70 -6 73 -4 c53 -4 72 -2 72 8 0 6 -1 11 -2 10 -2 -1
-34 -4 -73 -8z"/>
<path d="M13949 9385 c5 -11 17 -29 26 -40 l16 -20 -10 20 c-5 11 -17 29 -26
40 l-16 20 10 -20z"/>
<path d="M4135 9353 c27 -3 53 -10 57 -16 5 -8 8 -6 8 6 0 14 -9 17 -57 15
l-58 -2 50 -3z"/>
<path d="M4122 9311 c32 -5 35 -8 24 -23 -6 -9 -23 -18 -36 -21 -21 -3 -19 -5
8 -6 18 0 32 4 32 10 0 7 10 20 22 30 21 19 21 19 -33 18 -49 -2 -50 -2 -17
-8z"/>
<path d="M14000 9300 c6 -11 13 -20 16 -20 2 0 0 9 -6 20 -6 11 -13 20 -16 20
-2 0 0 -9 6 -20z"/>
<path d="M14021 9265 c8 -21 83 -144 86 -141 2 2 -10 28 -28 57 -33 57 -64
101 -58 84z"/>
<path d="M4099 9221 c7 -5 10 -14 7 -20 -4 -6 -5 -11 -2 -11 3 0 10 9 16 20 9
17 8 20 -12 20 -17 0 -19 -3 -9 -9z"/>
<path d="M4044 9100 c-5 -5 -90 -11 -189 -13 l-180 -2 181 -3 c151 -2 184 1
194 13 14 17 10 21 -6 5z"/>
<path d="M3762 9043 c48 -2 129 -2 180 0 51 1 12 3 -87 3 -99 0 -141 -2 -93
-3z"/>
<path d="M14161 9020 c14 -31 19 -36 19 -24 0 6 -7 19 -16 30 -14 18 -14 18
-3 -6z"/>
<path d="M3984 9000 c-5 -5 -77 -11 -159 -13 l-150 -3 156 -2 c132 -2 158 0
163 13 6 17 4 19 -10 5z"/>
<path d="M14186 8967 c3 -10 9 -15 12 -12 3 3 0 11 -7 18 -10 9 -11 8 -5 -6z"/>
<path d="M3818 8943 c78 -2 142 -6 142 -8 0 -2 -10 -25 -22 -49 l-22 -45 -120
-3 -121 -3 122 -5 121 -5 31 63 31 62 -153 -2 -152 -2 143 -3z"/>
<path d="M14221 8910 c14 -31 19 -36 19 -24 0 6 -7 19 -16 30 -14 18 -14 18
-3 -6z"/>
<path d="M14257 8830 c9 -22 18 -38 20 -36 5 5 -24 76 -31 76 -2 0 3 -18 11
-40z"/>
<path d="M3776 8793 c101 -4 101 -4 96 -28 -4 -23 -8 -24 -101 -28 l-96 -3 98
-2 c85 -2 98 0 103 16 3 9 10 25 15 35 8 16 1 17 -103 15 l-113 -2 101 -3z"/>
<path d="M14291 8760 c14 -31 19 -36 19 -24 0 6 -7 19 -16 30 -14 18 -14 18
-3 -6z"/>
<path d="M14310 8711 c0 -6 4 -13 10 -16 6 -3 7 1 4 9 -7 18 -14 21 -14 7z"/>
<path d="M3723 8693 c26 -2 67 -2 90 0 23 2 2 3 -48 3 -49 0 -68 -1 -42 -3z"/>
<path d="M3718 8673 c23 -2 61 -2 85 0 23 2 4 4 -43 4 -47 0 -66 -2 -42 -4z"/>
<path d="M14332 8675 c0 -13 56 -133 57 -120 0 6 -13 37 -29 70 -15 33 -28 56
-28 50z"/>
<path d="M3700 8634 c60 -8 130 -8 130 -1 0 4 -35 6 -77 6 -43 -1 -67 -3 -53
-5z"/>
<path d="M3733 8593 c48 -3 58 -7 55 -21 -2 -13 -17 -19 -58 -23 l-55 -6 56
-1 c44 -2 58 2 63 14 15 39 8 44 -56 42 l-63 -2 58 -3z"/>
<path d="M14390 8531 c0 -6 4 -13 10 -16 6 -3 7 1 4 9 -7 18 -14 21 -14 7z"/>
<path d="M3715 8513 c22 -3 43 -10 47 -16 5 -8 8 -6 8 6 0 14 -8 17 -47 15
-48 -1 -48 -1 -8 -5z"/>
<path d="M14420 8465 c0 -5 5 -17 10 -25 5 -8 10 -10 10 -5 0 6 -5 17 -10 25
-5 8 -10 11 -10 5z"/>
<path d="M14440 8417 c0 -13 42 -118 46 -115 2 2 -6 29 -17 59 -20 52 -29 70
-29 56z"/>
<path d="M3717 8391 c-4 -17 -3 -21 5 -13 5 5 8 16 6 23 -3 8 -7 3 -11 -10z"/>
<path d="M3696 8343 c-6 -14 -5 -15 5 -6 7 7 10 15 7 18 -3 3 -9 -2 -12 -12z"/>
<path d="M3682 8300 c0 -14 2 -19 5 -12 2 6 2 18 0 25 -3 6 -5 1 -5 -13z"/>
<path d="M14490 8276 c0 -8 4 -17 9 -20 5 -4 7 3 4 14 -6 23 -13 26 -13 6z"/>
<path d="M3667 8263 c-8 -14 -19 -68 -13 -62 8 8 26 69 21 69 -2 0 -6 -3 -8
-7z"/>
<path d="M14511 8230 c0 -8 4 -24 9 -35 5 -13 9 -14 9 -5 0 8 -4 24 -9 35 -5
13 -9 14 -9 5z"/>
<path d="M14546 8120 c3 -14 11 -32 16 -40 6 -10 7 -7 2 10 -3 14 -11 32 -16
40 -6 10 -7 7 -2 -10z"/>
<path d="M3593 8043 c-10 -34 -10 -36 3 -19 12 17 20 56 11 56 -1 0 -7 -17
-14 -37z"/>
<path d="M14570 8048 c0 -3 9 -34 19 -69 11 -35 25 -84 31 -108 6 -23 13 -41
16 -39 5 5 -52 207 -60 216 -4 3 -6 3 -6 0z"/>
<path d="M3455 7990 l-130 -6 127 -2 c76 -1 129 2 133 8 3 6 5 9 3 8 -2 -1
-61 -5 -133 -8z"/>
<path d="M3563 7945 c-3 -9 -3 -18 -1 -21 3 -3 8 4 11 16 6 23 -1 27 -10 5z"/>
<path d="M3388 7903 c34 -2 88 -2 120 0 31 2 3 3 -63 3 -66 0 -92 -1 -57 -3z"/>
<path d="M3383 7863 c31 -2 83 -2 115 0 31 2 5 3 -58 3 -63 0 -89 -1 -57 -3z"/>
<path d="M3428 7833 l104 -4 -6 -27 c-5 -20 -4 -23 4 -12 5 8 10 23 10 33 0
15 -11 17 -107 15 l-108 -2 103 -3z"/>
<path d="M14652 7765 c0 -11 3 -29 8 -40 11 -25 11 1 0 35 -6 20 -8 21 -8 5z"/>
<path d="M3503 7745 c-3 -9 -3 -18 -1 -21 3 -3 8 4 11 16 6 23 -1 27 -10 5z"/>
<path d="M3493 7685 c-3 -9 -3 -18 -1 -21 3 -3 8 4 11 16 6 23 -1 27 -10 5z"/>
<path d="M14682 7645 c0 -11 3 -29 8 -40 11 -25 11 1 0 35 -6 20 -8 21 -8 5z"/>
<path d="M3481 7634 c0 -11 3 -14 6 -6 3 7 2 16 -1 19 -3 4 -6 -2 -5 -13z"/>
<path d="M14697 7559 c4 -13 8 -18 11 -10 2 7 -1 18 -6 23 -8 8 -9 4 -5 -13z"/>
<path d="M3462 7545 c0 -16 2 -22 5 -12 2 9 2 23 0 30 -3 6 -5 -1 -5 -18z"/>
<path d="M14712 7510 c0 -14 2 -19 5 -12 2 6 2 18 0 25 -3 6 -5 1 -5 -13z"/>
<path d="M3451 7494 c0 -11 3 -14 6 -6 3 7 2 16 -1 19 -3 4 -6 -2 -5 -13z"/>
<path d="M14721 7464 c0 -11 3 -14 6 -6 3 7 2 16 -1 19 -3 4 -6 -2 -5 -13z"/>
<path d="M3435 7420 c-4 -17 -5 -34 -2 -36 2 -3 7 10 11 27 8 42 0 50 -9 9z"/>
<path d="M14730 7410 c5 -18 12 -35 16 -39 9 -9 -7 53 -17 63 -5 5 -4 -5 1
-24z"/>
<path d="M3372 7353 c33 -3 48 -9 51 -21 3 -12 5 -11 6 6 1 20 -3 22 -51 20
l-53 -2 47 -3z"/>
<path d="M14747 7315 c4 -27 10 -61 14 -75 5 -15 5 -2 2 30 -3 30 -9 64 -14
75 -4 11 -5 -2 -2 -30z"/>
<path d="M3406 7268 c-3 -13 -5 -36 -5 -53 1 -21 4 -15 10 20 8 52 6 72 -5 33z"/>
<path d="M14772 7170 c0 -14 2 -19 5 -12 2 6 2 18 0 25 -3 6 -5 1 -5 -13z"/>
<path d="M3392 7155 c0 -16 2 -22 5 -12 2 9 2 23 0 30 -3 6 -5 -1 -5 -18z"/>
<path d="M14781 7104 c1 -21 5 -52 9 -69 5 -19 6 -6 3 35 -6 73 -14 94 -12 34z"/>
<path d="M3381 7095 c-1 -11 -4 -31 -6 -45 l-6 -25 11 25 c6 13 9 33 7 45 -4
19 -4 19 -6 0z"/>
<path d="M3366 6983 c-3 -21 -5 -58 -5 -83 1 -32 4 -22 10 34 9 84 6 113 -5
49z"/>
<path d="M14807 6890 c3 -41 9 -100 13 -130 6 -38 7 -25 3 43 -3 54 -9 113
-14 130 -4 19 -5 1 -2 -43z"/>
<path d="M3352 6820 c0 -19 2 -27 5 -17 2 9 2 25 0 35 -3 9 -5 1 -5 -18z"/>
<path d="M3337 6643 c-4 -38 -6 -194 -5 -348 l2 -280 6 345 c3 190 5 346 4
348 0 1 -4 -28 -7 -65z"/>
<path d="M14833 6555 c0 -38 2 -53 4 -32 2 20 2 52 0 70 -2 17 -4 1 -4 -38z"/>
<path d="M14830 6073 c-3 -40 -1 -68 3 -64 4 4 7 37 5 72 l-3 64 -5 -72z"/>
<path d="M3343 5970 c0 -25 2 -35 4 -22 2 12 2 32 0 45 -2 12 -4 2 -4 -23z"/>
<path d="M14816 5853 c-4 -43 -9 -103 -13 -133 -3 -30 -3 -52 1 -49 7 7 30
249 23 255 -2 3 -8 -30 -11 -73z"/>
<path d="M3347 5835 c3 -27 10 -59 14 -70 4 -11 5 2 2 30 -3 28 -10 59 -14 70
-4 11 -5 -2 -2 -30z"/>
<path d="M3361 5709 c1 -19 5 -47 10 -64 5 -20 6 -9 2 30 -6 66 -14 88 -12 34z"/>
<path d="M14792 5605 c0 -16 2 -22 5 -12 2 9 2 23 0 30 -3 6 -5 -1 -5 -18z"/>
<path d="M3376 5569 c4 -19 10 -38 15 -43 4 -5 4 8 -1 29 -11 47 -22 59 -14
14z"/>
<path d="M14783 5535 c0 -22 2 -30 4 -17 2 12 2 30 0 40 -3 9 -5 -1 -4 -23z"/>
<path d="M3397 5440 c3 -30 7 -57 9 -59 7 -8 2 64 -6 89 -6 16 -7 6 -3 -30z"/>
<path d="M14772 5465 c0 -16 2 -22 5 -12 2 9 2 23 0 30 -3 6 -5 -1 -5 -18z"/>
<path d="M14763 5405 c-3 -9 -3 -18 -1 -21 3 -3 8 4 11 16 6 23 -1 27 -10 5z"/>
<path d="M3410 5356 c0 -8 4 -17 9 -20 5 -4 7 3 4 14 -6 23 -13 26 -13 6z"/>
<path d="M14752 5340 c0 -19 2 -27 5 -17 2 9 2 25 0 35 -3 9 -5 1 -5 -18z"/>
<path d="M3422 5300 c0 -14 2 -19 5 -12 2 6 2 18 0 25 -3 6 -5 1 -5 -13z"/>
<path d="M14734 5250 c-6 -27 -7 -47 -3 -44 8 5 23 83 17 89 -2 3 -9 -18 -14
-45z"/>
<path d="M3434 5231 c3 -24 10 -49 17 -55 9 -8 10 -8 5 1 -4 7 -11 32 -16 55
l-9 43 3 -44z"/>
<path d="M14721 5174 c0 -11 3 -14 6 -6 3 7 2 16 -1 19 -3 4 -6 -2 -5 -13z"/>
<path d="M3456 5109 c3 -24 10 -51 15 -59 7 -11 8 -8 4 10 -3 14 -7 38 -9 54
-8 47 -16 43 -10 -5z"/>
<path d="M14711 5135 c-1 -11 -4 -31 -6 -45 l-6 -25 11 25 c6 13 9 33 7 45 -4
19 -4 19 -6 0z"/>
<path d="M14691 5034 c0 -11 3 -14 6 -6 3 7 2 16 -1 19 -3 4 -6 -2 -5 -13z"/>
<path d="M3477 5010 c3 -11 9 -22 13 -25 5 -3 6 4 3 15 -3 11 -9 22 -13 25 -5
3 -6 -4 -3 -15z"/>
<path d="M14676 4979 c-8 -42 0 -50 9 -9 4 17 5 34 2 36 -2 3 -7 -10 -11 -27z"/>
<path d="M3496 4940 c7 -39 21 -80 28 -80 4 0 -19 84 -29 105 -3 6 -2 -6 1
-25z"/>
<path d="M14656 4903 c-2 -10 -7 -34 -10 -53 -8 -44 8 -11 17 38 7 34 2 45 -7
15z"/>
<path d="M3531 4814 c0 -11 3 -14 6 -6 3 7 2 16 -1 19 -3 4 -6 -2 -5 -13z"/>
<path d="M3428 4773 c23 -2 61 -2 85 0 23 2 4 4 -43 4 -47 0 -66 -2 -42 -4z"/>
<path d="M14621 4764 c0 -11 3 -14 6 -6 3 7 2 16 -1 19 -3 4 -6 -2 -5 -13z"/>
<path d="M3433 4733 c26 -2 67 -2 90 0 23 2 2 3 -48 3 -49 0 -68 -1 -42 -3z"/>
<path d="M14611 4724 c0 -11 3 -14 6 -6 3 7 2 16 -1 19 -3 4 -6 -2 -5 -13z"/>
<path d="M3390 4680 c0 -6 39 -10 96 -10 61 0 93 4 89 10 -3 6 -46 10 -96 10
-53 0 -89 -4 -89 -10z"/>
<path d="M14586 4649 c-8 -42 0 -50 9 -9 4 17 5 34 2 36 -2 3 -7 -10 -11 -27z"/>
<path d="M3480 4643 c59 -3 97 -8 102 -16 5 -8 8 -7 8 6 0 15 -11 17 -102 15
l-103 -2 95 -3z"/>
<path d="M3596 4583 c4 -16 13 -43 21 -60 7 -18 13 -36 13 -40 1 -15 43 -123
47 -120 2 3 -6 31 -19 63 -12 33 -23 64 -24 69 -1 6 -9 34 -19 63 -18 55 -30
71 -19 25z"/>
<path d="M14556 4555 c-3 -9 -6 -22 -5 -28 0 -7 5 -1 10 12 5 13 8 26 5 28 -2
2 -6 -3 -10 -12z"/>
<path d="M14526 4465 c-3 -9 -6 -22 -5 -28 0 -7 5 -1 10 12 5 13 8 26 5 28 -2
2 -6 -3 -10 -12z"/>
<path d="M14503 4393 c-18 -38 -16 -54 2 -19 9 16 14 33 13 37 -2 5 -9 -4 -15
-18z"/>
<path d="M3686 4330 c3 -14 11 -32 16 -40 6 -10 7 -7 2 10 -3 14 -11 32 -16
40 -6 10 -7 7 -2 -10z"/>
<path d="M14476 4325 c-9 -26 -7 -32 5 -12 6 10 9 21 6 23 -2 3 -7 -2 -11 -11z"/>
<path d="M14449 4254 c-5 -15 -8 -29 -5 -31 2 -2 8 10 14 26 13 38 5 41 -9 5z"/>
<path d="M3710 4265 c0 -5 5 -17 10 -25 5 -8 10 -10 10 -5 0 6 -5 17 -10 25
-5 8 -10 11 -10 5z"/>
<path d="M3730 4196 c0 -8 4 -17 9 -20 5 -4 7 3 4 14 -6 23 -13 26 -13 6z"/>
<path d="M14422 4181 c-6 -17 -9 -31 -6 -31 7 0 25 52 20 57 -2 2 -8 -10 -14
-26z"/>
<path d="M3765 4123 c39 -90 41 -82 -28 -86 l-62 -3 72 -2 71 -2 -24 50 c-13
27 -24 54 -24 59 0 6 -5 13 -11 16 -5 4 -3 -10 6 -32z"/>
<path d="M14389 4103 c-20 -56 -20 -58 -11 -48 11 12 33 75 26 75 -2 0 -9 -12
-15 -27z"/>
<path d="M14352 4015 c-17 -37 -14 -45 4 -12 9 16 14 31 11 33 -2 2 -9 -7 -15
-21z"/>
<path d="M3713 4003 c20 -2 54 -2 75 0 20 2 3 4 -38 4 -41 0 -58 -2 -37 -4z"/>
<path d="M3830 3971 c5 -11 10 -22 10 -25 0 -3 -37 -7 -82 -9 l-83 -3 92 -2
91 -2 -11 30 c-6 17 -15 30 -20 30 -4 0 -3 -9 3 -19z"/>
<path d="M14321 3943 c-10 -26 -10 -27 4 -9 8 11 15 23 15 28 0 15 -7 8 -19
-19z"/>
<path d="M3705 3894 c70 -8 173 -8 168 -1 -2 4 -48 6 -101 5 -53 0 -83 -3 -67
-4z"/>
<path d="M14295 3889 c-4 -6 -5 -12 -2 -15 2 -3 7 2 10 11 7 17 1 20 -8 4z"/>
<path d="M3880 3860 c0 -5 -46 -11 -102 -13 l-103 -3 112 -2 c96 -2 112 0 107
13 -7 17 -14 20 -14 5z"/>
<path d="M14253 3803 c-8 -21 -22 -51 -30 -68 -9 -16 -11 -25 -5 -20 13 12 64
125 56 125 -3 0 -12 -17 -21 -37z"/>
<path d="M3910 3812 c0 -8 -36 -13 -117 -14 l-118 -2 114 -3 c106 -3 147 4
128 24 -4 3 -7 1 -7 -5z"/>
<path d="M3920 3781 c0 -6 4 -13 10 -16 6 -3 7 1 4 9 -7 18 -14 21 -14 7z"/>
<path d="M3950 3721 c0 -6 4 -13 10 -16 6 -3 7 1 4 9 -7 18 -14 21 -14 7z"/>
<path d="M14195 3689 c-4 -6 -5 -12 -2 -15 2 -3 7 2 10 11 7 17 1 20 -8 4z"/>
<path d="M14160 3620 c-11 -22 -18 -40 -15 -40 2 0 14 18 25 40 11 22 18 40
15 40 -2 0 -14 -18 -25 -40z"/>
<path d="M3989 3633 c6 -12 17 -26 24 -30 6 -4 -67 -10 -163 -13 l-175 -6 178
-2 c97 -1 177 1 177 6 -1 4 -12 21 -26 37 -18 20 -22 23 -15 8z"/>
<path d="M14106 3520 c-15 -27 -25 -50 -22 -50 6 0 57 92 53 97 -2 2 -16 -19
-31 -47z"/>
<path d="M3855 3550 l-180 -6 182 -1 c100 -1 188 -5 195 -9 10 -6 9 -3 -1 9
-7 9 -14 16 -15 15 0 -1 -82 -5 -181 -8z"/>
<path d="M4081 3470 c-1 -9 8 -23 19 -33 11 -9 20 -13 20 -7 0 5 -6 13 -14 17
-7 4 -16 15 -19 23 -5 13 -6 13 -6 0z"/>
<path d="M14025 3380 c-9 -16 -13 -30 -11 -30 3 0 12 14 21 30 9 17 13 30 11
30 -3 0 -12 -13 -21 -30z"/>
<path d="M4141 3371 c0 -8 10 -29 24 -47 14 -18 25 -36 25 -39 0 -4 9 -18 20
-32 11 -14 20 -21 20 -15 0 6 -6 17 -14 24 -7 8 -17 24 -20 36 -4 12 -12 22
-17 22 -5 0 -9 7 -9 15 0 8 -4 15 -9 15 -5 0 -12 8 -14 18 -3 10 -5 12 -6 3z"/>
<path d="M13983 3308 c-15 -20 -25 -38 -20 -38 3 0 12 11 21 25 17 26 16 35
-1 13z"/>
<path d="M13944 3248 c-4 -7 -14 -24 -22 -38 -14 -24 -13 -24 3 -5 20 24 37
55 31 55 -3 0 -8 -6 -12 -12z"/>
<path d="M4250 3201 c0 -6 4 -13 10 -16 6 -3 7 1 4 9 -7 18 -14 21 -14 7z"/>
<path d="M4290 3138 c21 -35 67 -93 54 -68 -14 26 -65 100 -69 100 -3 0 5 -15
15 -32z"/>
<path d="M13860 3120 c-6 -11 -8 -20 -6 -20 3 0 10 9 16 20 6 11 8 20 6 20 -3
0 -10 -9 -16 -20z"/>
<path d="M13809 3043 c-37 -51 -58 -85 -42 -68 13 13 68 87 77 103 17 28 -3 9
-35 -35z"/>
<path d="M4350 3043 c0 -5 9 -18 20 -28 11 -10 20 -23 20 -29 0 -6 15 -24 32
-41 l31 -30 -18 28 c-9 15 -21 27 -26 27 -5 0 -9 6 -9 13 0 6 -11 25 -25 41
-14 16 -25 25 -25 19z"/>
<path d="M13738 2943 c-18 -21 -31 -43 -25 -43 2 0 13 14 25 30 25 33 24 41 0
13z"/>
<path d="M4070 2890 l-395 -5 403 -3 c267 -1 401 1 397 8 -3 6 -7 9 -8 8 -1
-2 -180 -5 -397 -8z"/>
<path d="M13681 2867 c-13 -21 -12 -21 5 -5 10 10 16 20 13 22 -3 3 -11 -5
-18 -17z"/>
<path d="M4490 2861 c0 -6 12 -24 26 -39 l27 -27 -23 35 c-31 46 -30 45 -30
31z"/>
<path d="M3883 2823 c115 -2 299 -2 410 0 111 1 18 2 -208 2 -225 0 -316 -1
-202 -2z"/>
<path d="M13620 2788 c-42 -54 -52 -72 -22 -38 29 32 65 80 59 80 -2 0 -19
-19 -37 -42z"/>
<path d="M4545 2780 c3 -5 8 -10 11 -10 2 0 4 5 4 10 0 6 -5 10 -11 10 -5 0
-7 -4 -4 -10z"/>
<path d="M13531 2676 l-24 -31 28 27 c16 15 27 29 24 31 -2 3 -15 -10 -28 -27z"/>
<path d="M4670 2633 c18 -24 35 -43 37 -43 7 0 -35 56 -54 71 -9 8 -2 -5 17
-28z"/>
<path d="M13439 2568 c-108 -122 -134 -156 -78 -98 56 57 153 170 146 170 -2
0 -33 -33 -68 -72z"/>
<path d="M4795 2485 l67 -75 -593 -3 -594 -2 603 -3 603 -2 -68 79 c-37 44
-72 80 -76 80 -5 1 21 -33 58 -74z"/>
<path d="M13185 2289 c-66 -66 -169 -165 -230 -218 -130 -116 -232 -211 -169
-160 135 113 541 499 524 499 -3 0 -59 -54 -125 -121z"/>
<path d="M4892 2114 l3 -279 2 268 3 268 120 -122 c66 -67 120 -119 120 -115
0 3 -56 62 -125 132 l-125 126 2 -278z"/>
<path d="M5170 2105 c13 -14 26 -25 28 -25 3 0 -5 11 -18 25 -13 14 -26 25
-28 25 -3 0 5 -11 18 -25z"/>
<path d="M5214 2062 c8 -13 66 -56 66 -49 0 3 -17 17 -37 33 -20 15 -33 23
-29 16z"/>
<path d="M5290 1997 c0 -3 19 -20 43 -38 23 -19 36 -26 28 -16 -16 20 -71 61
-71 54z"/>
<path d="M5385 1914 c6 -2 10 -21 9 -42 l-3 -37 8 35 c8 39 5 50 -12 49 -7 0
-8 -2 -2 -5z"/>
<path d="M5421 1862 c1 -17 3 -20 6 -9 4 16 7 16 34 -3 l29 -21 3 -502 2 -502
2 505 2 505 -39 27 -40 28 1 -28z"/>
<path d="M12710 1860 c-14 -11 -20 -20 -14 -20 6 0 19 9 29 20 23 25 17 25
-15 0z"/>
<path d="M12618 1784 c-32 -25 -58 -48 -58 -50 0 -3 27 16 60 42 53 41 67 54
58 54 -2 0 -29 -21 -60 -46z"/>
<path d="M5530 1796 c0 -2 7 -9 15 -16 9 -7 15 -8 15 -2 0 5 -7 12 -15 16 -8
3 -15 4 -15 2z"/>
<path d="M5570 1766 c0 -2 8 -10 18 -17 15 -13 16 -12 3 4 -13 16 -21 21 -21
13z"/>
<path d="M5610 1736 c0 -2 8 -10 18 -17 15 -13 16 -12 3 4 -13 16 -21 21 -21
13z"/>
<path d="M12505 1699 c-59 -45 -67 -57 -12 -18 42 29 65 50 55 49 -2 0 -21
-14 -43 -31z"/>
<path d="M5657 1699 c7 -7 15 -10 18 -7 3 3 -2 9 -12 12 -14 6 -15 5 -6 -5z"/>
<path d="M5681 1677 c51 -39 109 -78 109 -74 0 7 -96 77 -106 77 -4 0 -5 -1
-3 -3z"/>
<path d="M12419 1633 c-13 -16 -12 -17 4 -4 16 13 21 21 13 21 -2 0 -10 -8
-17 -17z"/>
<path d="M12370 1599 c-22 -18 -22 -19 -3 -10 12 6 25 16 28 21 9 15 3 12 -25
-11z"/>
<path d="M5820 1580 c14 -11 34 -25 45 -31 14 -7 12 -4 -5 11 -14 11 -34 25
-45 31 -14 7 -12 4 5 -11z"/>
<path d="M12319 1563 c-13 -16 -12 -17 4 -4 16 13 21 21 13 21 -2 0 -10 -8
-17 -17z"/>
<path d="M12243 1514 c-29 -19 -53 -37 -53 -39 0 -6 59 31 90 55 40 31 20 23
-37 -16z"/>
<path d="M5890 1536 c0 -2 8 -10 18 -17 15 -13 16 -12 3 4 -13 16 -21 21 -21
13z"/>
<path d="M5931 1507 c2 -1 13 -9 24 -17 19 -14 19 -14 6 3 -7 9 -18 17 -24 17
-6 0 -8 -1 -6 -3z"/>
<path d="M12100 1424 c-41 -25 -79 -51 -85 -57 -5 -6 1 -4 15 4 127 77 150 91
150 95 0 6 -1 6 -80 -42z"/>
<path d="M6010 1456 c0 -3 9 -10 20 -16 11 -6 20 -8 20 -6 0 3 -9 10 -20 16
-11 6 -20 8 -20 6z"/>
<path d="M6110 1391 c14 -11 29 -21 33 -21 5 0 21 -8 35 -18 41 -28 142 -84
142 -79 0 5 -133 85 -200 120 l-35 18 25 -20z"/>
<path d="M11954 1334 c-18 -14 -18 -15 4 -4 12 6 22 13 22 15 0 8 -5 6 -26
-11z"/>
<path d="M11878 1293 c-27 -14 -46 -28 -45 -30 5 -4 97 47 97 53 0 6 -1 5 -52
-23z"/>
<path d="M11788 1244 c-38 -20 -36 -28 2 -9 17 9 30 18 30 20 0 7 -1 6 -32
-11z"/>
<path d="M6370 1245 c0 -5 257 -135 267 -135 4 1 -48 30 -117 65 -134 69 -150
77 -150 70z"/>
<path d="M11668 1184 c-27 -13 -48 -27 -48 -29 0 -5 99 42 109 51 13 11 -20 0
-61 -22z"/>
<path d="M11574 1134 c-18 -14 -18 -14 6 -3 31 14 36 19 24 19 -6 0 -19 -7
-30 -16z"/>
<path d="M11520 1110 c-8 -5 -10 -10 -5 -10 6 0 17 5 25 10 8 5 11 10 5 10 -5
0 -17 -5 -25 -10z"/>
<path d="M6650 1106 c0 -2 7 -7 16 -10 8 -3 12 -2 9 4 -6 10 -25 14 -25 6z"/>
<path d="M11435 1070 c-33 -15 -57 -29 -54 -29 10 -1 119 48 119 54 0 7 3 8
-65 -25z"/>
<path d="M6711 1077 c9 -10 191 -88 195 -84 3 2 -35 21 -83 41 -110 47 -119
51 -112 43z"/>
<path d="M11320 1020 c-8 -5 -10 -10 -5 -10 6 0 17 5 25 10 8 5 11 10 5 10 -5
0 -17 -5 -25 -10z"/>
<path d="M11253 994 c-18 -8 -33 -16 -33 -19 0 -5 70 22 79 30 8 9 -14 4 -46
-11z"/>
<path d="M6930 980 c8 -5 20 -10 25 -10 6 0 3 5 -5 10 -8 5 -19 10 -25 10 -5
0 -3 -5 5 -10z"/>
<path d="M11152 953 c-24 -8 -41 -17 -39 -19 5 -5 69 16 82 27 11 11 10 11
-43 -8z"/>
<path d="M7000 950 c8 -5 22 -9 30 -9 10 0 8 3 -5 9 -27 12 -43 12 -25 0z"/>
<path d="M7099 915 c18 -8 36 -15 40 -15 13 1 -45 29 -59 29 -8 0 0 -6 19 -14z"/>
<path d="M11065 920 c-13 -6 -15 -9 -5 -9 8 0 22 4 30 9 18 12 2 12 -25 0z"/>
<path d="M7170 890 c8 -5 20 -10 25 -10 6 0 3 5 -5 10 -8 5 -19 10 -25 10 -5
0 -3 -5 5 -10z"/>
<path d="M10960 880 c-8 -5 -10 -10 -5 -10 6 0 17 5 25 10 8 5 11 10 5 10 -5
0 -17 -5 -25 -10z"/>
<path d="M7239 865 c18 -8 38 -15 45 -15 6 1 -4 7 -23 15 -18 8 -38 15 -45 15
-6 -1 4 -7 23 -15z"/>
<path d="M10865 850 c-13 -5 -14 -9 -5 -9 8 0 24 4 35 9 13 5 14 9 5 9 -8 0
-24 -4 -35 -9z"/>
<path d="M7315 840 c27 -12 43 -12 25 0 -8 5 -22 9 -30 9 -10 0 -8 -3 5 -9z"/>
<path d="M7370 821 c8 -4 29 -11 45 -15 19 -4 25 -3 15 3 -8 4 -28 11 -45 15
-19 4 -25 3 -15 -3z"/>
<path d="M10761 819 c-18 -6 -31 -12 -29 -14 2 -3 24 1 49 9 49 16 33 20 -20
5z"/>
<path d="M10661 789 c-18 -6 -31 -12 -29 -14 5 -5 78 14 78 20 0 6 -8 5 -49
-6z"/>
<path d="M7498 783 c7 -3 16 -2 19 1 4 3 -2 6 -13 5 -11 0 -14 -3 -6 -6z"/>
<path d="M7580 761 c8 -5 31 -11 50 -15 24 -4 28 -3 15 2 -31 14 -83 24 -65
13z"/>
<path d="M10551 759 c-18 -6 -31 -12 -29 -14 2 -3 24 1 49 9 49 16 33 20 -20
5z"/>
<path d="M7677 739 c7 -7 15 -10 18 -7 3 3 -2 9 -12 12 -14 6 -15 5 -6 -5z"/>
<path d="M10450 730 c-20 -6 -21 -8 -5 -8 11 0 29 3 40 8 25 11 -1 11 -35 0z"/>
<path d="M7730 720 c34 -11 60 -11 35 0 -11 5 -29 8 -40 8 -16 0 -15 -2 5 -8z"/>
<path d="M7798 708 c10 -10 163 -40 170 -34 2 3 -13 8 -34 11 -22 4 -63 12
-92 19 -29 7 -49 9 -44 4z"/>
<path d="M10360 710 c-9 -6 -10 -10 -3 -10 6 0 15 5 18 10 8 12 4 12 -15 0z"/>
<path d="M10398 713 c7 -3 16 -2 19 1 4 3 -2 6 -13 5 -11 0 -14 -3 -6 -6z"/>
<path d="M10253 683 c9 -2 23 -2 30 0 6 3 -1 5 -18 5 -16 0 -22 -2 -12 -5z"/>
<path d="M8015 661 c11 -5 43 -11 70 -14 31 -4 40 -3 25 2 -36 11 -119 22 -95
12z"/>
<path d="M10158 663 c7 -3 16 -2 19 1 4 3 -2 6 -13 5 -11 0 -14 -3 -6 -6z"/>
<path d="M10065 650 c-13 -6 -5 -7 25 -3 25 3 47 7 49 9 9 8 -55 2 -74 -6z"/>
<path d="M8156 640 c10 -10 154 -33 161 -26 3 3 -17 7 -44 11 -26 3 -65 10
-87 15 -23 5 -35 5 -30 0z"/>
<path d="M9995 640 c-16 -7 -17 -9 -3 -9 9 -1 20 4 23 9 7 11 7 11 -20 0z"/>
<path d="M9870 620 c-16 -5 -2 -6 35 -3 33 3 62 7 64 9 8 7 -74 2 -99 -6z"/>
<path d="M8360 611 c8 -5 35 -11 60 -15 30 -4 36 -3 20 3 -41 13 -97 22 -80
12z"/>
<path d="M9768 603 c6 -2 18 -2 25 0 6 3 1 5 -13 5 -14 0 -19 -2 -12 -5z"/>
<path d="M8505 589 c22 -4 54 -8 70 -7 22 0 19 3 -15 9 -60 10 -108 9 -55 -2z"/>
<path d="M9673 593 c15 -2 39 -2 55 0 15 2 2 4 -28 4 -30 0 -43 -2 -27 -4z"/>
<path d="M8652 581 c14 -5 64 -11 110 -14 75 -5 77 -5 23 3 -101 15 -163 20
-133 11z"/>
<path d="M9518 583 c7 -3 16 -2 19 1 4 3 -2 6 -13 5 -11 0 -14 -3 -6 -6z"/>
<path d="M9588 583 c12 -2 30 -2 40 0 9 3 -1 5 -23 4 -22 0 -30 -2 -17 -4z"/>
<path d="M9375 569 c-25 -4 -11 -5 40 -2 44 3 82 7 84 9 7 7 -81 2 -124 -7z"/>
<path d="M8988 563 c57 -2 147 -2 200 0 53 1 7 3 -103 3 -110 0 -154 -2 -97
-3z"/>
</g>
</svg>
